<svg xmlns="http://www.w3.org/2000/svg" viewBox="0 0 48 48" id="coin-money"><g style="fill: #54bd95;"><path d="M22.35 36H4v4H25.2A14.05 14.05 0 0 1 22.35 36zM4 30v4H21.58A14.18 14.18 0 0 1 21 30zM7 24v4H21.15a13.6 13.6 0 0 1 1.2-4zM27.76 18H4v4H23.52A14.27 14.27 0 0 1 27.76 18z"></path><rect width="24" height="4" x="1" y="12"></rect><rect width="24" height="4" x="4" y="6"></rect><path d="M35,23a7,7,0,1,0,7,7A7,7,0,0,0,35,23Zm-.5,6h1a2.5,2.5,0,0,1,.5,5,1,1,0,1,1-2,0H33a1,1,0,0,1,0-2h2.5a.5.5,0,0,0,0-1h-1a2.5,2.5,0,0,1-.5-4.95A1,1,0,1,1,36,26h1a1,1,0,0,1,0,2H34.5A.5.5,0,0,0,34.5,29Z"></path><path d="M35,18A12,12,0,0,0,24.6,36C30.76,46.61,47,42.22,47,30A12,12,0,0,0,35,18Zm0,21a9,9,0,1,1,9-9A9,9,0,0,1,35,39Z"></path></g></svg>